# xmcd
#
# Track frame offsets:
#	150
#	17162
#	34235
#	50773
#	67844
#	80642
#	98789
#	115286
#	133811
#	153280
#	167048
#	187747
#	203682
#	216543
#	231181
#	250107
#	264713
#	284398
#	297931
#	313709
#	326965
#
# Disc length: 4599 seconds
#
# Revision: 0
# Processed by: cddbd v1.5.1PL2 Copyright (c) Steve Scherf et al.
# Submitted via: audiograbber 1.82.01
#
DISCID=3d11f515
DTITLE=OUTLAWS - OUTLAWS
DYEAR=2006
DGENRE=Country
TTITLE0=REDNECK WOMAN
TTITLE1=LOVIN` ALL NIGHT
TTITLE2=BLACK COFFEE
TTITLE3=SHARP DRESSED MAN
TTITLE4=49 - 7 NIGHTS TO ROCK
TTITLE5=ELVIS MEDLEY
TTITLE6=SIN WAGON
TTITLE7=EVERGREEN
TTITLE8=START THE CAR
TTITLE9=GOOD TO GO
TTITLE10=AIN`T GOIN` DOWN
TTITLE11=HONKY TONK TWIST
TTITLE12=POUR ME
TTITLE13=BAD CASE OF LOVING YOU
TTITLE14=WILD SIDE
TTITLE15=SOMETHIN` IN THE WATER
TTITLE16=PUT SOME DRIVE IN YOUR COUNTRY
TTITLE17=ONE IN A ROW
TTITLE18=CHILL FACTOR
TTITLE19=BLACK HORSE AND THE CHERRY TREE
TTITLE20=SHE BANGS
EXTD=
EXTT0=
EXTT1=
EXTT2=
EXTT3=
EXTT4=
EXTT5=
EXTT6=
EXTT7=
EXTT8=
EXTT9=
EXTT10=
EXTT11=
EXTT12=
EXTT13=
EXTT14=
EXTT15=
EXTT16=
EXTT17=
EXTT18=
EXTT19=
EXTT20=
PLAYORDER=
